<?xml version="1.0" encoding="utf-8"?>
<!-- Generator: Adobe Illustrator 17.0.2, SVG Export Plug-In . SVG Version: 6.00 Build 0)  -->
<!DOCTYPE svg PUBLIC "-//W3C//DTD SVG 1.1//EN" "http://www.w3.org/Graphics/SVG/1.1/DTD/svg11.dtd">
<svg version="1.1" id="Layer_1" xmlns="http://www.w3.org/2000/svg" xmlns:xlink="http://www.w3.org/1999/xlink" x="0px" y="0px"
	 width="158.246px" height="296.709px" viewBox="0 0 158.246 296.709" enable-background="new 0 0 158.246 296.709"
	 xml:space="preserve">
<rect x="25.127" y="20.447" fill="#B3E5D4" width="111.992" height="135.069"/>
<path fill="none" stroke="#BCBCBC" stroke-width="1.3575" stroke-miterlimit="10" d="M58.798,80.176
	c0,0,15.729-28.005,22.325-29.186c6.596-1.18,21.351,29.186,21.351,29.186"/>
<rect x="52.107" y="79.497" fill="#FF6970" stroke="#FF6970" stroke-width="0.5198" stroke-miterlimit="10" width="59.05" height="50.227"/>
<line fill="none" stroke="#FFFFFF" stroke-width="1.3575" stroke-linecap="round" stroke-miterlimit="10" x1="62.93" y1="119.808" x2="97.922" y2="119.808"/>
<line fill="none" stroke="#FFFFFF" stroke-width="1.3575" stroke-linecap="round" stroke-miterlimit="10" x1="63.14" y1="124.766" x2="98.132" y2="124.766"/>
<path fill="none" d="M0.05,0.05v296.609h158.146V0.05H0.05z M137.155,154.802H25.163V19.733h111.992V154.802z"/>
<g>
	<path fill="#FFFFFF" d="M67.277,92.962c0-0.214,0.071-0.396,0.214-0.547c0.143-0.15,0.316-0.226,0.52-0.226
		c0.157,0,0.303,0.051,0.438,0.154c0.135,0.103,0.225,0.233,0.27,0.393c0.065,0.196,0.169,0.367,0.312,0.513
		s0.299,0.264,0.471,0.355s0.356,0.161,0.554,0.208s0.39,0.072,0.578,0.072c0.009,0,0.109-0.007,0.301-0.021
		s0.396-0.073,0.615-0.178c0.542-0.242,0.816-0.638,0.82-1.189c0.009-0.073,0.007-0.156-0.007-0.25s-0.062-0.192-0.144-0.297
		s-0.187-0.201-0.314-0.287s-0.266-0.165-0.414-0.236s-0.304-0.133-0.468-0.188s-0.317-0.107-0.458-0.157
		c-0.784-0.223-1.422-0.522-1.914-0.896c-0.31-0.25-0.544-0.526-0.704-0.827c-0.155-0.305-0.232-0.618-0.232-0.937
		c0-0.064,0.002-0.127,0.007-0.191c0.054-0.784,0.356-1.382,0.907-1.794s1.32-0.619,2.309-0.619h0.225
		c0.15,0.009,0.323,0.026,0.519,0.051s0.398,0.072,0.608,0.14s0.415,0.167,0.615,0.294s0.38,0.29,0.54,0.485
		c0.241,0.319,0.375,0.686,0.403,1.101v0.034v0.027v0.014c0,0.205-0.069,0.377-0.208,0.516s-0.305,0.208-0.5,0.208
		c-0.177,0-0.33-0.061-0.459-0.181s-0.203-0.27-0.221-0.448c-0.018-0.073-0.04-0.14-0.065-0.202s-0.051-0.115-0.079-0.161
		c-0.123-0.15-0.355-0.278-0.697-0.383c-0.15-0.037-0.281-0.059-0.393-0.068s-0.181-0.014-0.208-0.014h-0.027
		c-0.711,0-1.201,0.137-1.47,0.41c-0.168,0.168-0.267,0.419-0.294,0.752c0,0.014,0,0.025,0,0.034c0,0.141,0.05,0.271,0.15,0.39
		c0.109,0.127,0.253,0.243,0.431,0.345s0.368,0.191,0.571,0.267s0.386,0.136,0.55,0.181c0.998,0.278,1.735,0.656,2.211,1.135
		c0.495,0.488,0.742,1.073,0.742,1.757c0,0.037,0,0.073,0,0.109c-0.009,0.456-0.127,0.875-0.354,1.258
		c-0.114,0.187-0.247,0.356-0.399,0.509s-0.331,0.291-0.535,0.414c-0.337,0.205-0.682,0.35-1.037,0.434
		c-0.354,0.084-0.657,0.126-0.907,0.126c-0.383,0-0.749-0.049-1.097-0.147s-0.667-0.238-0.957-0.42s-0.541-0.399-0.755-0.649
		s-0.383-0.536-0.506-0.854C67.295,93.201,67.277,93.094,67.277,92.962z"/>
	<path fill="#FFFFFF" d="M75.644,94.596v-8.148c0-0.214,0.073-0.393,0.219-0.537s0.321-0.215,0.526-0.215s0.379,0.072,0.523,0.215
		c0.144,0.144,0.215,0.323,0.215,0.537v2.819c0.055-0.063,0.11-0.123,0.167-0.18s0.113-0.112,0.167-0.166
		c0.561-0.538,1.131-0.806,1.709-0.806c0.113,0,0.236,0.014,0.37,0.041s0.271,0.081,0.411,0.16c0.14,0.079,0.274,0.189,0.403,0.33
		c0.13,0.141,0.244,0.323,0.344,0.545c0.299,0.613,0.461,1.51,0.488,2.691c0.009,0.195,0.014,0.447,0.014,0.754s0,0.607,0,0.899
		c0,0.333-0.005,0.681-0.014,1.046c0,0.205-0.068,0.38-0.206,0.526s-0.309,0.219-0.512,0.219s-0.375-0.073-0.515-0.219
		s-0.21-0.321-0.21-0.526c0.009-0.337,0.014-0.663,0.014-0.978c0-0.269,0-0.558,0-0.868s-0.005-0.585-0.014-0.827
		c-0.009-0.419-0.034-0.773-0.075-1.063s-0.09-0.525-0.146-0.708c-0.058-0.182-0.115-0.315-0.175-0.4s-0.118-0.126-0.178-0.126
		c-0.355,0-0.742,0.249-1.162,0.745c-0.196,0.223-0.356,0.442-0.482,0.656s-0.206,0.36-0.243,0.438
		c-0.105,0.214-0.157,0.536-0.157,0.964v2.181c0,0.214-0.072,0.394-0.215,0.54s-0.318,0.219-0.523,0.219s-0.38-0.072-0.526-0.215
		S75.644,94.814,75.644,94.596z"/>
	<path fill="#FFFFFF" d="M82.623,91.807c0.027-0.457,0.13-0.894,0.307-1.312s0.42-0.789,0.729-1.113
		c0.309-0.338,0.65-0.596,1.025-0.774s0.765-0.267,1.169-0.267c0.356,0,0.698,0.065,1.025,0.195c0.327,0.13,0.621,0.328,0.881,0.592
		c0.357,0.347,0.62,0.76,0.789,1.24c0.138,0.383,0.206,0.79,0.206,1.219c0,0.105-0.005,0.209-0.014,0.314
		c-0.037,0.464-0.145,0.904-0.322,1.321c-0.179,0.417-0.416,0.786-0.714,1.109c-0.311,0.337-0.656,0.594-1.035,0.771
		c-0.38,0.177-0.775,0.266-1.187,0.266c-0.354,0-0.693-0.067-1.019-0.201c-0.324-0.134-0.616-0.333-0.875-0.597
		c-0.345-0.336-0.602-0.744-0.77-1.221c-0.136-0.391-0.204-0.807-0.204-1.248C82.616,92.005,82.618,91.907,82.623,91.807z
		 M84.1,91.902c-0.005,0.055-0.005,0.11,0,0.165c0,0.284,0.039,0.553,0.116,0.81c0.096,0.302,0.237,0.548,0.425,0.741
		c0.233,0.242,0.514,0.363,0.843,0.363c0.196,0,0.396-0.051,0.596-0.154c0.201-0.103,0.387-0.257,0.556-0.463
		c0.178-0.206,0.318-0.445,0.421-0.717s0.163-0.552,0.182-0.84c0.005-0.046,0.007-0.092,0.007-0.137
		c-0.005-0.274-0.053-0.544-0.144-0.81c-0.11-0.311-0.266-0.571-0.466-0.782c-0.252-0.233-0.532-0.35-0.843-0.35
		c-0.411,0-0.779,0.206-1.104,0.617c-0.169,0.206-0.305,0.445-0.407,0.717S84.118,91.614,84.1,91.902z"/>
	<path fill="#FFFFFF" d="M90.362,97.132v-8.053c0-0.205,0.073-0.379,0.219-0.523s0.321-0.215,0.526-0.215
		c0.178,0,0.332,0.056,0.461,0.166c0.131,0.111,0.218,0.246,0.264,0.404h0.014c0.533-0.307,1.126-0.46,1.777-0.46h0.157
		c0.401,0.018,0.761,0.129,1.08,0.334c0.278,0.178,0.524,0.435,0.738,0.771c0.355,0.568,0.533,1.252,0.533,2.052
		c0,0.178-0.007,0.408-0.021,0.688c-0.014,0.281-0.073,0.586-0.178,0.915c-0.251,0.795-0.74,1.388-1.47,1.781
		c-0.41,0.224-0.873,0.335-1.388,0.335c-0.224,0-0.438-0.018-0.643-0.055s-0.401-0.084-0.588-0.144v2.003
		c0,0.205-0.072,0.38-0.215,0.526c-0.145,0.146-0.318,0.219-0.523,0.219s-0.381-0.073-0.526-0.219S90.362,97.337,90.362,97.132z
		 M91.845,93.549c0.15,0.064,0.337,0.127,0.561,0.188c0.224,0.062,0.458,0.093,0.704,0.093c0.278,0,0.52-0.053,0.725-0.158
		c0.347-0.178,0.59-0.459,0.731-0.844c0.073-0.197,0.118-0.402,0.137-0.617c0.019-0.215,0.027-0.416,0.027-0.604
		c0-0.114-0.014-0.269-0.041-0.463s-0.076-0.387-0.146-0.58c-0.071-0.192-0.167-0.359-0.287-0.5
		c-0.121-0.142-0.279-0.217-0.476-0.227h-0.13c-0.483,0-0.916,0.121-1.299,0.364c-0.132,0.073-0.238,0.153-0.318,0.24
		c-0.079,0.087-0.142,0.158-0.188,0.213V93.549z"/>
	<path fill="#FFFFFF" d="M64.091,111.43v-8.066c0-0.205,0.073-0.378,0.219-0.52s0.317-0.212,0.513-0.212s0.363,0.071,0.502,0.212
		s0.208,0.314,0.208,0.52v3.596l4.703-0.629v-2.961c0-0.207,0.071-0.381,0.212-0.523c0.141-0.142,0.314-0.213,0.52-0.213
		c0.196,0,0.363,0.071,0.502,0.212s0.208,0.314,0.208,0.52v8.066c0,0.205-0.069,0.377-0.208,0.516s-0.307,0.208-0.502,0.208
		c-0.205,0-0.378-0.069-0.52-0.208s-0.212-0.311-0.212-0.516v-3.671l-4.703,0.629v3.04c0,0.206-0.069,0.378-0.208,0.518
		c-0.139,0.14-0.307,0.209-0.502,0.209s-0.367-0.069-0.513-0.208S64.091,111.635,64.091,111.43z"/>
	<path fill="#FFFFFF" d="M73.299,108.607c0.027-0.457,0.129-0.894,0.307-1.312s0.42-0.789,0.729-1.113
		c0.309-0.338,0.651-0.596,1.026-0.774s0.765-0.267,1.169-0.267c0.356,0,0.698,0.065,1.025,0.195c0.327,0.13,0.62,0.328,0.882,0.592
		c0.356,0.347,0.619,0.76,0.788,1.24c0.138,0.383,0.206,0.79,0.206,1.219c0,0.105-0.005,0.209-0.014,0.314
		c-0.037,0.464-0.145,0.904-0.322,1.321c-0.179,0.417-0.416,0.786-0.713,1.109c-0.312,0.337-0.657,0.594-1.036,0.771
		s-0.775,0.266-1.187,0.266c-0.354,0-0.693-0.067-1.018-0.201s-0.617-0.333-0.875-0.597c-0.345-0.336-0.602-0.744-0.77-1.221
		c-0.136-0.391-0.204-0.807-0.204-1.248C73.292,108.806,73.295,108.707,73.299,108.607z M74.776,108.703
		c-0.004,0.055-0.004,0.11,0,0.165c0,0.284,0.039,0.553,0.116,0.81c0.096,0.302,0.238,0.548,0.425,0.741
		c0.233,0.242,0.514,0.363,0.843,0.363c0.196,0,0.395-0.051,0.596-0.154c0.201-0.103,0.386-0.257,0.555-0.463
		c0.178-0.206,0.319-0.445,0.421-0.717c0.103-0.272,0.163-0.552,0.182-0.84c0.004-0.046,0.007-0.092,0.007-0.137
		c-0.004-0.274-0.053-0.544-0.144-0.81c-0.109-0.311-0.265-0.571-0.466-0.782c-0.251-0.233-0.532-0.35-0.843-0.35
		c-0.411,0-0.778,0.206-1.103,0.617c-0.169,0.206-0.305,0.445-0.408,0.717C74.854,108.135,74.794,108.415,74.776,108.703z"/>
	<path fill="#FFFFFF" d="M81.051,108.203v-0.027c0-0.196,0.007-0.428,0.021-0.697c0.014-0.269,0.03-0.53,0.05-0.783
		c0.02-0.253,0.037-0.468,0.051-0.646c0.015-0.178,0.021-0.271,0.021-0.28c0.019-0.177,0.097-0.326,0.234-0.447
		c0.137-0.121,0.301-0.181,0.492-0.181c0.208,0,0.385,0.069,0.527,0.208c0.145,0.139,0.216,0.306,0.216,0.501l-0.027,0.211
		c-0.019,0.123-0.035,0.267-0.052,0.433c-0.016,0.166-0.03,0.342-0.044,0.529s-0.025,0.377-0.034,0.573s-0.014,0.382-0.014,0.559
		v0.014v0.027c0,0.259,0.005,0.525,0.014,0.798s0.027,0.525,0.055,0.757c0.046,0.287,0.098,0.5,0.154,0.641s0.115,0.234,0.175,0.279
		c0.019,0.019,0.062,0.041,0.13,0.068s0.165,0.041,0.288,0.041c0.178,0,0.358-0.027,0.542-0.082
		c0.183-0.054,0.351-0.124,0.503-0.208c0.153-0.084,0.289-0.168,0.408-0.252c0.119-0.084,0.201-0.153,0.247-0.208
		c0.018-0.018,0.031-0.056,0.041-0.113c0.009-0.057,0.014-0.108,0.014-0.153l0.068-3.915c0-0.186,0.07-0.349,0.212-0.487
		s0.31-0.208,0.506-0.208c0.205,0,0.377,0.069,0.517,0.208c0.139,0.139,0.208,0.302,0.208,0.489v5.544
		c0,0.214-0.074,0.394-0.222,0.54c-0.148,0.146-0.332,0.219-0.551,0.219c-0.178,0-0.332-0.047-0.461-0.142
		c-0.131-0.094-0.223-0.217-0.277-0.369l-0.041,0.027c-0.233,0.143-0.497,0.261-0.792,0.355c-0.295,0.095-0.606,0.142-0.936,0.142
		c-0.251,0-0.503-0.037-0.758-0.109c-0.269-0.073-0.496-0.191-0.683-0.355c-0.196-0.196-0.348-0.424-0.454-0.684
		c-0.107-0.26-0.187-0.544-0.239-0.852s-0.084-0.628-0.095-0.96C81.056,108.875,81.051,108.54,81.051,108.203z"/>
	<path fill="#FFFFFF" d="M88.4,111.43v-5.646c0-0.214,0.073-0.391,0.219-0.53s0.321-0.208,0.526-0.208
		c0.214,0,0.391,0.069,0.529,0.208c0.14,0.139,0.209,0.315,0.209,0.53v0.116c0.132-0.141,0.28-0.27,0.444-0.386
		s0.339-0.204,0.526-0.263c0.25-0.091,0.496-0.137,0.738-0.137c0.36,0,0.665,0.098,0.914,0.294c0.325,0.25,0.487,0.577,0.487,0.978
		v0.41c0,0.196-0.07,0.366-0.21,0.509s-0.312,0.215-0.515,0.215s-0.374-0.072-0.512-0.215s-0.206-0.313-0.206-0.509v-0.212h-0.027
		c-0.019,0-0.049,0.002-0.092,0.007c-0.044,0.004-0.098,0.016-0.161,0.034c-0.159,0.045-0.333,0.15-0.52,0.314
		s-0.355,0.358-0.506,0.581s-0.246,0.413-0.287,0.567s-0.066,0.25-0.075,0.287v3.056c0,0.205-0.069,0.379-0.209,0.523
		c-0.139,0.144-0.315,0.215-0.529,0.215c-0.205,0-0.381-0.072-0.526-0.215S88.4,111.635,88.4,111.43z"/>
	<path fill="#FFFFFF" d="M94.258,110.152c0-0.16,0.047-0.3,0.141-0.42c0.093-0.121,0.22-0.204,0.379-0.25
		c0.073-0.018,0.139-0.027,0.198-0.027c0.142,0,0.266,0.047,0.372,0.14c0.107,0.093,0.193,0.208,0.257,0.345
		c0.104,0.26,0.262,0.474,0.472,0.643s0.467,0.253,0.772,0.253c0.091,0,0.2-0.016,0.328-0.048s0.247-0.083,0.358-0.154
		c0.112-0.071,0.205-0.157,0.281-0.26c0.074-0.103,0.112-0.222,0.112-0.359c0-0.141-0.042-0.261-0.126-0.359
		c-0.085-0.098-0.189-0.182-0.314-0.253c-0.126-0.071-0.256-0.126-0.391-0.167c-0.134-0.041-0.249-0.075-0.345-0.104
		c-0.72-0.205-1.242-0.467-1.565-0.786c-0.374-0.346-0.561-0.795-0.561-1.347c0-0.67,0.299-1.178,0.896-1.524
		c0.278-0.16,0.563-0.257,0.858-0.294c0.293-0.037,0.521-0.055,0.68-0.055c0.897,0,1.538,0.25,1.921,0.752
		c0.232,0.31,0.349,0.656,0.349,1.039c0,0.178-0.056,0.329-0.168,0.455c-0.111,0.125-0.251,0.202-0.42,0.229
		c-0.036,0.004-0.073,0.007-0.109,0.007c-0.118,0-0.239-0.032-0.362-0.096c-0.164-0.086-0.273-0.262-0.328-0.526
		c-0.046-0.223-0.157-0.379-0.335-0.468s-0.383-0.133-0.615-0.133c-0.082,0-0.183,0.011-0.301,0.034s-0.231,0.058-0.338,0.105
		c-0.107,0.047-0.196,0.114-0.268,0.202c-0.07,0.088-0.105,0.19-0.105,0.307c0,0.13,0.045,0.24,0.135,0.328
		c0.089,0.087,0.192,0.162,0.31,0.223c0.117,0.061,0.236,0.106,0.358,0.138s0.221,0.056,0.296,0.076
		c0.791,0.216,1.362,0.496,1.712,0.84c0.351,0.344,0.525,0.808,0.525,1.392c0,0.57-0.234,1.064-0.704,1.483
		c-0.224,0.214-0.486,0.377-0.79,0.489c-0.303,0.112-0.627,0.167-0.974,0.167c-0.474,0-0.867-0.084-1.179-0.253
		c-0.312-0.168-0.558-0.337-0.735-0.506c-0.205-0.187-0.369-0.396-0.492-0.629S94.258,110.339,94.258,110.152z"/>
</g>
</svg>
